<svg width="167" height="47" viewBox="0 0 167 47" fill="none" xmlns="http://www.w3.org/2000/svg">
<path d="M129.907 32.1125H154.032C156.257 32.1125 158.151 31.3258 159.713 29.7523C161.286 28.1788 162.073 26.285 162.073 24.0709C162.073 21.8455 161.286 19.9461 159.713 18.3726C158.151 16.8104 156.257 16.0293 154.032 16.0293H129.907V32.1125ZM125.894 12H154.032C157.358 12 160.202 13.1801 162.562 15.5403C164.922 17.9006 166.102 20.7441 166.102 24.0709C166.102 27.3864 164.922 30.2243 162.562 32.5846C160.202 34.9448 157.358 36.1249 154.032 36.1249H125.894V12Z" fill="white"/>
<path d="M96.2252 11H99.8161L121.041 35.1249H115.68L112.14 31.1125H83.9014L80.3611 35.1249H75L96.2252 11ZM98.0122 15.0461L87.4249 27.0833H108.616L98.0122 15.0461Z" fill="white"/>
<path d="M30 12H70.2082V15.2032L39.7612 32.1125H70.2082V36.1249H30V32.9386L60.4301 16.0292H30V12Z" fill="white"/>
<path d="M24.4044 21.497L24.3638 25.0877L6.39848e-05 46.0384L0.06077 40.6776L4.11299 37.1829L4.43275 8.9463L0.460704 5.36075L0.52141 9.49492e-07L24.4044 21.497ZM20.3384 23.2381L8.42184 12.5152L8.18188 33.7053L20.3384 23.2381Z" fill="#F00000"/>
</svg>
